<!-- icon666.com - MILLIONS vector ICONS FREE --><svg id="svg853" width="20" height="20" viewBox="0 0 16.933333 16.933334" xmlns="http://www.w3.org/2000/svg" xmlns:svg="http://www.w3.org/2000/svg"><g id="layer1"><path id="path1289" d="m11.638962 10.849874a.52921796.52921796 0 0 0 -.800468-.454236l-1.8438151 1.106393v-4.6839527l1.9823081-2.232938a.52921796.52921796 0 0 0 .134875-.351917v-2.644283a.52921796.52921796 0 0 0 -.925525-.351916l-1.7208248 1.935799-1.720825-1.935799a.52921796.52921796 0 0 0 -.926042.351916v2.644283a.52921796.52921796 0 0 0 .134875.351917l1.9823086 2.230871v4.6855027l-1.8432986-1.105876a.52921796.52921796 0 0 0 -.728637.72037l2.6463497 4.498434a.52921796.52921796 0 0 0 .9120889 0l2.6448002-4.498434a.52921796.52921796 0 0 0 .07183-.266134zm-1.585433-7.8703207v1.052649l-1.5880168 1.786971-1.588017-1.786971v-1.052649l1.1932089 1.34152a.52921796.52921796 0 0 0 .7911664 0zm-.449585 9.3906417-1.1384318 1.933216-1.1368815-1.933216.8650634.519348a.52921796.52921796 0 0 0 .5431195 0z" stroke-linecap="round" stroke-linejoin="round" stroke-width="1.058"></path></g></svg>