<!-- icon666.com - MILLIONS vector ICONS FREE --><svg id="svg853" width="20" height="20" viewBox="0 0 16.933333 16.933334" xmlns="http://www.w3.org/2000/svg" xmlns:svg="http://www.w3.org/2000/svg"><g id="layer1"><path id="path1289" d="m5.2922931 6.0832293a.52921796.52921796 0 0 0 .800468.4542359l1.8438152-1.1063926v4.6839524l-1.9823081 2.232938a.52921796.52921796 0 0 0 -.1348754.351917v2.644283a.52921796.52921796 0 0 0 .925525.351916l1.7208252-1.935799 1.720825 1.935799a.52921796.52921796 0 0 0 .926042-.351916v-2.644283a.52921796.52921796 0 0 0 -.134875-.351917l-1.9823086-2.230871v-4.6855026l1.8432986 1.1058758a.52921796.52921796 0 0 0 .728637-.7203697l-2.6463497-4.4984335a.52921796.52921796 0 0 0 -.9120889 0l-2.6447999 4.4984335a.52921796.52921796 0 0 0 -.07183.2661338zm1.5854331 7.8703207v-1.052649l1.5880168-1.786971 1.588017 1.786971v1.052649l-1.1932089-1.34152a.52921796.52921796 0 0 0 -.7911664 0zm.449585-9.3906414 1.1384318-1.9332155 1.1368815 1.9332155-.8650634-.5193483a.52921796.52921796 0 0 0 -.5431195 0z" stroke-linecap="round" stroke-linejoin="round" stroke-width="1.058"></path></g></svg>